<svg width="37" height="46" viewBox="0 0 37 46" fill="none" xmlns="http://www.w3.org/2000/svg">
<path d="M20.8259 17.6868C21.0222 17.774 21.2273 17.8175 21.4411 17.8174C21.6548 17.8173 21.8564 17.7765 22.0456 17.695C22.2366 17.6107 22.3928 17.4881 22.5143 17.3272L23.2996 17.6761C23.117 17.9332 22.8639 18.136 22.5403 18.2846C22.2215 18.4319 21.8748 18.5121 21.5 18.5252C21.1271 18.5357 20.7695 18.4649 20.4274 18.3129C20.0645 18.1517 19.7852 17.9519 19.5897 17.7135C19.3971 17.4765 19.2771 17.2154 19.2297 16.9301C19.1852 16.6462 19.2031 16.3512 19.2834 16.0451C19.3684 15.7377 19.5062 15.4343 19.6967 15.1349L19.8068 14.9619C19.9973 14.6626 20.2204 14.3989 20.4762 14.1708C20.7367 13.9413 21.0203 13.7626 21.3269 13.6346C21.6364 13.5079 21.9627 13.445 22.3056 13.4458C22.6514 13.448 23.0058 13.5297 23.3687 13.691C23.7466 13.8588 24.0313 14.0769 24.2231 14.3453C24.4165 14.6109 24.5158 14.9016 24.5209 15.2173C24.5307 15.5317 24.4452 15.846 24.2644 16.1602L23.479 15.8113C23.5812 15.6207 23.6304 15.4294 23.6266 15.2375C23.6258 15.0469 23.5701 14.8707 23.4594 14.7088C23.3535 14.5455 23.1904 14.4149 22.9703 14.3171C22.7174 14.2048 22.475 14.157 22.243 14.1737C22.0158 14.189 21.8018 14.2524 21.601 14.364C21.405 14.4742 21.2244 14.6141 21.0592 14.7838C20.8987 14.952 20.7564 15.1337 20.6323 15.3286L20.5222 15.5017C20.3981 15.6966 20.2966 15.8981 20.2177 16.1061C20.1387 16.3141 20.0994 16.5168 20.0997 16.7142C20.103 16.913 20.1597 17.0967 20.2698 17.2654C20.3847 17.4327 20.57 17.5731 20.8259 17.6868ZM24.3166 17.1398L24.3769 17.045C24.5814 16.7237 24.8216 16.4482 25.0975 16.2185C25.3751 15.9861 25.6738 15.8106 25.9935 15.6919C26.315 15.5705 26.6469 15.5137 26.9893 15.5213C27.3334 15.5262 27.6735 15.6034 28.0097 15.7527C28.3488 15.9034 28.6171 16.0965 28.8144 16.3321C29.0164 16.5663 29.1471 16.8287 29.2064 17.1192C29.2704 17.4084 29.2648 17.7141 29.1894 18.0364C29.1158 18.3559 28.9767 18.6764 28.7722 18.9977L28.7119 19.0924C28.5075 19.4138 28.2673 19.6893 27.9914 19.919C27.7154 20.1486 27.4153 20.3235 27.0908 20.4436C26.7711 20.5622 26.4392 20.6191 26.0951 20.6142C25.7557 20.6078 25.4164 20.5293 25.0773 20.3787C24.7382 20.228 24.4691 20.0362 24.27 19.8034C24.0727 19.5678 23.942 19.3054 23.878 19.0163C23.8187 18.7257 23.8258 18.4207 23.8994 18.1011C23.9731 17.7815 24.1121 17.4611 24.3166 17.1398ZM25.2024 17.4118L25.1421 17.5065C25.0006 17.729 24.8951 17.9516 24.8258 18.1745C24.7582 18.3946 24.7329 18.6052 24.7499 18.8065C24.7697 19.0091 24.838 19.1927 24.9546 19.3572C25.073 19.519 25.2467 19.6508 25.4758 19.7525C25.7019 19.853 25.9268 19.8983 26.1505 19.8885C26.379 19.8772 26.5978 19.8212 26.807 19.7204C27.0161 19.6196 27.211 19.4842 27.3916 19.3143C27.577 19.143 27.7404 18.9462 27.882 18.7237L27.9423 18.629C28.0821 18.4093 28.1843 18.1887 28.2489 17.9673C28.3182 17.7445 28.3429 17.5317 28.323 17.3292C28.3078 17.1251 28.2419 16.9409 28.1253 16.7763C28.0117 16.6131 27.8403 16.4806 27.6112 16.3789C27.3851 16.2784 27.1579 16.2338 26.9294 16.2451C26.7039 16.2576 26.4842 16.315 26.2703 16.4173C26.0612 16.5181 25.8654 16.6548 25.683 16.8274C25.5024 16.9973 25.3422 17.1921 25.2024 17.4118Z" fill="black"/>
<path d="M20.3175 20.2241C19.4738 20.4841 18.6473 20.5849 17.8378 20.5262C17.0326 20.4582 16.2707 20.2511 15.5521 19.9049C14.841 19.5564 14.1999 19.081 13.6289 18.4785C13.0578 17.876 12.5884 17.1691 12.2206 16.358L12.0173 15.9098C11.5914 14.9706 11.3579 14.0897 11.3167 13.267C11.2723 12.4373 11.3841 11.6892 11.652 11.0227C11.9199 10.3562 12.3115 9.79353 12.8267 9.33464C13.3419 8.87575 13.9392 8.54159 14.6186 8.33215C15.4846 8.06518 16.2957 7.97733 17.0519 8.06861C17.8156 8.15759 18.5151 8.39608 19.1506 8.78409C19.7828 9.16499 20.3525 9.6706 20.8595 10.3009C21.3634 10.9241 21.7992 11.6413 22.167 12.4524L22.5687 13.3383L13.5202 16.1277L12.7894 14.5161L19.7662 12.3654L19.6984 12.2159C19.4363 11.7129 19.0984 11.2493 18.6849 10.8253C18.2789 10.399 17.7996 10.0927 17.247 9.90617C16.6944 9.71968 16.0635 9.73576 15.3542 9.95441C14.8839 10.0994 14.4944 10.3289 14.1858 10.643C13.874 10.95 13.6602 11.3322 13.5443 11.7897C13.4283 12.2471 13.413 12.7668 13.4982 13.3488C13.5834 13.9307 13.7841 14.5704 14.1003 15.2676L14.3035 15.7159C14.552 16.2638 14.8643 16.7555 15.2405 17.1909C15.6209 17.617 16.0464 17.9643 16.5171 18.2328C16.9952 18.499 17.5012 18.6674 18.0353 18.738C18.5768 18.8062 19.1313 18.7529 19.6987 18.578C20.4303 18.3524 20.9855 18.0191 21.3641 17.578C21.7427 17.1369 22.0143 16.6193 22.1789 16.0252L23.8639 16.5884C23.7736 17.0461 23.6043 17.5078 23.356 17.9736C23.1077 18.4394 22.737 18.87 22.244 19.2652C21.7585 19.6582 21.1163 19.9778 20.3175 20.2241Z" fill="white"/>
<path d="M11.2719 21.2631C11.2719 21.2631 10.8924 12.2623 10.9149 10.4448C10.9374 8.62737 6.74774 7.74405 3.22167 7.06881C1.45863 6.56244 1.99433 9.01676 2.44038 9.01677C2.88643 9.01678 5.96169 10.58 7.79267 11.3969C7.79267 11.3969 7.34665 13.9925 8.68472 21.2631C10.0228 28.5336 13 39.054 13 41H30C32.6086 31.4385 35.153 23.1199 34.9927 22.1071C34.8325 21.0943 27.4598 21.2631 26.0173 21.2631H20.7282H11.2719Z" fill="#231E1A" stroke="#1C1919" stroke-width="2"/>
<circle cx="17" cy="44" r="2" fill="#231E1A"/>
<circle cx="26" cy="44" r="2" fill="#231E1A"/>
<path d="M26.3751 36.0784V24.5536C26.3751 23.7936 28.0001 23.8377 28.0001 24.5536V36.0784C28.0001 36.9451 26.3751 36.9451 26.3751 36.0784Z" fill="#EC942C" stroke="#030202"/>
<path d="M20.6875 36.3361V24.5654C20.6875 23.7892 22.3125 23.8342 22.3125 24.5654V36.3361C22.3125 37.2213 20.6875 37.2213 20.6875 36.3361Z" fill="#EC942C" stroke="#030202"/>
<path d="M15 36.0784V24.5536C15 23.7936 16.625 23.8377 16.625 24.5536V36.0784C16.625 36.9451 15 36.9451 15 36.0784Z" fill="#EC942C" stroke="#030202"/>
</svg>
